# xmcd CD database file
#
# Track frame offsets:
#	150
#	14994
#	29204
#	45232
#	63076
#	74158
#	92453
#
# Disc length: 1471 seconds
#
# Revision: 0
# Processed by: cddbd v1.5.1PL0 Copyright (c) Steve Scherf et al.
# Submitted via: CDex 1.51
#
DISCID=6005bd07
DTITLE=Richard Draime - Gospel And Country
DYEAR=2004
DGENRE=Country
TTITLE0=Devil's Slave
TTITLE1=Tag Along
TTITLE2=Daddy's Bookmarkers
TTITLE3=Dreaming And Drifting ThruThe Fifties
TTITLE4=Lord If This Day Is My Last
TTITLE5=And Jesus Wept
TTITLE6=God Will Bless America Tonight
EXTD=YEAR: 2004
EXTT0=
EXTT1=
EXTT2=
EXTT3=
EXTT4=
EXTT5=
EXTT6=
PLAYORDER=
